<?xml version="1.0" encoding="UTF-8" standalone="no"?>
<!-- Created with Inkscape (http://www.inkscape.org/) -->

<svg
   width="102mm"
   height="123.367mm"
   viewBox="0 0 102 123.367"
   version="1.1"
   id="svg1"
   inkscape:version="1.4 (86a8ad7, 2024-10-11)"
   sodipodi:docname="JolakulaMidja_snidmat.svg"
   xml:space="preserve"
   xmlns:inkscape="http://www.inkscape.org/namespaces/inkscape"
   xmlns:sodipodi="http://sodipodi.sourceforge.net/DTD/sodipodi-0.dtd"
   xmlns="http://www.w3.org/2000/svg"
   xmlns:svg="http://www.w3.org/2000/svg"><sodipodi:namedview
     id="namedview1"
     pagecolor="#ffffff"
     bordercolor="#000000"
     borderopacity="0.25"
     inkscape:showpageshadow="2"
     inkscape:pageopacity="0.0"
     inkscape:pagecheckerboard="0"
     inkscape:deskcolor="#d1d1d1"
     inkscape:document-units="mm"
     inkscape:zoom="1.0242632"
     inkscape:cx="489.62025"
     inkscape:cy="272.87908"
     inkscape:window-width="1920"
     inkscape:window-height="1094"
     inkscape:window-x="-11"
     inkscape:window-y="-11"
     inkscape:window-maximized="1"
     inkscape:current-layer="layer1" /><defs
     id="defs1" /><g
     inkscape:label="Lag 1"
     inkscape:groupmode="layer"
     id="layer1"
     transform="translate(-182.00919,-13.573535)"><path
       id="path2-8-4"
       style="fill:#000000;stroke-width:1.54849"
       d="m 233.00919,14.573396 a 9,9 0 0 0 -8.99997,8.99996 9,9 0 0 0 1.63039,5.13509 h -0.69453 c -1.07233,0 -1.9358,0.70923 -1.9358,1.5906 v 6.7784 a 50,50 0 0 0 -40.00014,48.86368 50,50 0 0 0 50.00005,49.999544 50,50 0 0 0 50.00005,-49.999544 50,50 0 0 0 -40.00014,-48.86368 v -6.7784 c 0,-0.88137 -0.86296,-1.5906 -1.93529,-1.5906 h -0.69504 a 9,9 0 0 0 1.63039,-5.13509 9,9 0 0 0 -8.99997,-8.99996 z m 0,4.00027 a 5,5 0 0 1 5.00021,4.99969 5,5 0 0 1 -5.00021,5.00022 5,5 0 0 1 -4.99969,-5.00022 5,5 0 0 1 4.99969,-4.99969 z m 0,22.36763 a 45,45 0 0 1 43.63971,34.603051 h -87.27942 a 45,45 0 0 1 43.63971,-34.603051 z m -43.05112,57.85176 h 86.16167 A 45,45 0 0 1 233.00919,130.94149 45,45 0 0 1 189.95807,98.793056 Z" /></g></svg>
